# This file uses centimeters as units for non-parametric coordinates.

mtllib meteor.mtl
g default
v -0.500000 0.333333 0.250000
v -0.511461 0.518400 0.250000
v 0.500000 -0.500000 0.250000
v 0.333333 -0.500000 0.250000
v 0.154585 -0.623836 0.250000
v -0.580154 0.159487 0.250000
v -0.302219 0.277622 0.438594
v 0.410193 -0.015094 0.445625
v 0.389059 0.019101 0.445625
v -0.134881 0.281071 0.445625
v -0.173993 0.279311 0.445625
v -0.193058 0.245116 0.445625
v -0.193058 -0.275304 0.445625
v -0.173993 -0.309500 0.445625
v -0.134881 -0.311260 0.445625
v 0.389059 -0.049290 0.445625
v -0.262539 -0.432350 0.476137
v -0.333333 0.500000 0.250000
v 0.626553 -0.312508 0.250000
v 0.453210 -0.111842 0.497760
v -0.244720 0.374466 0.490345
v -0.264619 0.632417 0.250000
v -0.117062 0.375883 0.486455
v 0.694562 -0.108196 0.250000
v -0.037391 0.647339 0.250000
v 0.215948 0.661982 0.250000
v 0.754789 0.078803 0.250000
v 0.464681 0.084216 0.497772
v 0.626553 0.187492 0.250000
v 0.349659 0.603394 0.250000
v 0.315565 0.407249 0.444712
v 0.659698 0.327560 0.250000
v 0.477063 0.460679 0.250000
v -0.571388 0.022118 0.250000
v -0.012082 -0.623836 0.250000
v -0.500000 -0.166667 0.250000
v -0.193850 -0.596653 0.250000
v -0.608734 -0.309170 0.250000
v -0.360517 -0.596653 0.250000
v -0.500000 -0.500000 0.250000
v 0.322411 -0.010784 0.384976
v 0.305640 0.016352 0.384976
v -0.110133 0.224239 0.384976
v -0.141171 0.222842 0.384976
v -0.156300 0.195706 0.384976
v -0.156300 -0.217274 0.384976
v -0.141171 -0.244410 0.384976
v -0.110133 -0.245807 0.384976
v 0.305640 -0.037920 0.384976
v 0.224539 -0.455879 0.511040
v 0.088682 -0.644553 0.460491
v -0.553284 0.110218 0.500000
v -0.407945 0.330193 0.547871
v -0.441667 -0.166667 0.500000
v -0.443518 0.150492 0.530884
v -0.482224 0.375037 0.500000
v 0.544294 -0.434378 0.500000
v 0.523926 -0.319797 0.500000
v 0.273959 -0.376975 0.471260
v -0.470904 0.535029 0.500000
v -0.333333 0.441667 0.500000
v 0.626553 -0.312508 0.412500
v -0.309283 0.546346 0.500000
v -0.037391 0.647339 0.412500
v 0.670759 -0.179706 0.500000
v 0.546584 -0.129877 0.544876
v 0.754215 0.021043 0.500000
v -0.055943 0.558085 0.510434
v 0.138814 0.677363 0.500000
v 0.072699 0.690547 0.500000
v 0.650929 0.141761 0.500000
v 0.510822 0.314281 0.500000
v 0.432472 0.510630 0.500000
v 0.394250 0.553444 0.500000
v 0.558229 -0.014378 0.508337
v -0.130231 -0.606167 0.500000
v -0.188276 -0.504469 0.504336
v -0.512344 -0.317627 0.500000
v -0.561971 -0.207635 0.478637
v -0.351003 -0.504491 0.500000
v -0.301805 -0.304921 0.500025
v -0.124603 -0.413248 0.472150
v -0.215025 -0.298901 0.543484
v -0.230210 -0.307601 0.558966
v -0.251045 -0.315261 0.550886
v -0.212425 0.265920 0.531902
v -0.228747 0.276262 0.547167
v -0.248466 0.284926 0.534999
v -0.149884 -0.335402 0.533589
v -0.153409 -0.354052 0.549699
v -0.152948 -0.376420 0.538891
v 0.417524 -0.052154 0.536003
v 0.434299 -0.060347 0.552113
v 0.452386 -0.074005 0.541927
v -0.193590 0.305164 0.540387
v -0.205331 0.320907 0.556428
v -0.219593 0.340213 0.546391
v 0.444987 -0.015094 0.549628
v 0.462892 -0.015024 0.565837
v 0.488227 -0.014871 0.560555
v -0.152322 0.345965 0.538101
v -0.153124 0.323729 0.549050
v -0.149783 0.305050 0.532995
v 0.418585 0.022072 0.539373
v 0.434662 0.030292 0.555508
v 0.452452 0.044453 0.546586
v -0.219776 -0.371624 0.553286
v -0.205626 -0.351798 0.561193
v -0.194576 -0.336654 0.545154
vt 0.312500 0.208333
vt 0.312500 0.250000
vt 0.625000 0.937500
vt 0.583333 0.937500
vt 0.541667 0.937500
vt 0.312500 0.166667
vt 0.598716 0.611858
vt 0.397358 0.511179
vt 0.375000 0.500000
vt 0.375000 0.524997
vt 0.375000 0.725002
vt 0.375000 0.312500
vt 0.416667 0.312500
vt 0.687500 0.000000
vt 0.687500 0.041667
vt 0.458333 0.312500
vt 0.687500 0.083333
vt 0.500000 0.312500
vt 0.541667 0.312500
vt 0.687500 0.125000
vt 0.687500 0.166667
vt 0.583333 0.312500
vt 0.583333 0.208333
vt 0.687500 0.208333
vt 0.625000 0.312500
vt 0.687500 0.250000
vt 0.312500 0.125000
vt 0.500000 0.937500
vt 0.312500 0.083333
vt 0.458333 0.937500
vt 0.312500 0.041667
vt 0.416667 0.937500
vt 0.312500 0.000000
vt 0.375000 0.937500
vt 0.625000 0.625000
vt 0.598716 0.611858
vt 0.397358 0.511179
vt 0.375000 0.500000
vt 0.375000 0.524997
vt 0.375000 0.725002
vt 0.375000 0.750000
vt 0.397358 0.738821
vt 0.598716 0.638142
vt 0.565874 0.662869
vt 0.555327 0.122190
vt 0.527149 0.874369
vt 0.372101 0.151053
vt 0.389194 0.207708
vt 0.528950 0.405447
vt 0.396844 0.096270
vt 0.395833 0.166667
vt 0.373984 0.224663
vt 0.357095 0.254588
vt 0.635235 0.578475
vt 0.622728 0.043485
vt 0.616966 -0.018030
vt 0.583333 0.020833
vt 0.393766 0.251016
vt 0.416667 0.229167
vt 0.651697 0.041485
vt 0.609171 0.042656
vt 0.430556 0.250000
vt 0.505172 0.272061
vt 0.627054 0.070895
vt 0.604167 0.083333
vt 0.631200 0.115301
vt 0.505052 0.226051
vt 0.527558 0.252650
vt 0.513889 0.250000
vt 0.629304 0.150754
vt 0.622776 0.214641
vt 0.605562 0.244077
vt 0.594956 0.247376
vt 0.468301 0.436955
vt 0.473339 0.960109
vt 0.455824 0.070269
vt 0.385375 0.056227
vt 0.376157 0.072595
vt 0.414403 0.062501
vt 0.417930 0.104303
vt 0.352510 -0.028957
vt 0.375008 0.407207
vt 0.426155 0.110351
vt 0.583333 0.041667
vt 0.224826 0.229370
vt 0.125000 0.250000
vt 0.125000 0.225002
vt 0.238970 0.021181
vt 0.625000 0.384272
vt 0.598716 0.638142
vt 0.234668 0.250000
vt 0.169717 0.283538
vt 0.502254 0.193481
vt 0.599598 0.418062
vt 0.625000 0.625000
vt 0.397358 0.738821
vt 0.604943 0.388082
vt 0.470049 0.200446
vt 0.572432 0.585574
vt 0.232451 0.219730
vt 0.431696 0.071133
vt 0.394274 0.459363
vt 0.375000 0.750000
vt 0.239847 -0.000217
vt 0.125000 0.000000
vt 0.125000 0.024998
vt 0.521451 0.043007
vt 0.478697 0.043833
vt 0.599742 0.117643
vt 0.609063 0.125000
vt 0.416667 0.208333
vt 0.435279 0.205912
vt 0.416667 0.166667
vt 0.433052 0.187365
vt 0.587861 0.081298
vt 0.420365 0.043526
vt 0.440366 0.041494
vt 0.591080 0.142347
vt 0.583333 0.166667
vt 0.435644 0.054035
vt 0.286373 0.019594
vt 0.285321 0.232016
vt 0.442370 0.194597
vt 0.459568 0.044347
vt 0.392500 0.298617
vt 0.587766 0.105954
vt 0.608263 0.254767
vt 0.447831 0.204278
vt 0.285358 0.250000
vt 0.595523 0.114314
vt 0.625000 0.304284
vt 0.269207 0.182345
vt 0.458123 0.203765
vt 0.594463 0.127525
vt 0.612583 0.337987
vt 0.284887 -0.000302
vt 0.448377 0.040680
vt 0.375011 0.272773
vn -0.217707 0.544667 0.809902
vn -0.217707 0.544667 0.809902
vn -0.217707 0.544667 0.809902
vn -0.256846 -0.040435 0.965606
vn -0.256846 -0.040435 0.965606
vn -0.256846 -0.040435 0.965606
vn 0.000000 0.000000 1.000000
vn 0.000000 0.000000 1.000000
vn 0.000000 0.000000 1.000000
vn 0.000000 0.000000 1.000000
vn 0.000000 0.000000 1.000000
vn 0.000000 0.000000 1.000000
vn 0.000000 0.000000 1.000000
vn 0.000000 0.000000 1.000000
vn 0.000000 0.000000 1.000000
vn 0.079962 0.197398 0.977057
vn 0.079962 0.197398 0.977057
vn 0.079962 0.197398 0.977057
vn -0.567991 0.011902 0.822949
vn -0.413671 -0.684725 0.600023
vn -0.383109 -0.734411 0.560239
vn -0.568635 -0.006634 0.822563
vn -0.326563 -0.752512 0.571910
vn -0.357125 -0.749850 0.556945
vn 0.352788 -0.581918 0.732742
vn 0.360917 -0.577064 0.732622
vn 0.834429 -0.052611 0.548598
vn 0.848671 -0.017507 0.528631
vn 0.828161 0.058046 0.557477
vn 0.848206 0.016030 0.529424
vn 0.320427 0.554223 0.768221
vn 0.347018 0.539691 0.767015
vn -0.306824 0.706716 0.637504
vn -0.335753 0.705384 0.624262
vn -0.386555 0.650619 0.653659
vn -0.361511 0.690364 0.626664
vn -0.856324 0.462342 0.230107
vn -0.856324 0.462342 0.230107
vn -0.856324 0.462342 0.230107
vn -0.856324 0.462342 0.230107
vn 0.570254 -0.373750 0.731520
vn 0.570254 -0.373750 0.731520
vn 0.570254 -0.373750 0.731520
vn 0.570254 -0.373750 0.731520
vn 0.000000 -0.995192 -0.097947
vn 0.000000 -0.995192 -0.097947
vn 0.000000 -0.995192 -0.097947
vn -0.153972 -0.062069 0.986124
vn -0.153972 -0.062069 0.986124
vn -0.153972 -0.062069 0.986124
vn 0.201091 0.005778 0.979556
vn 0.201091 0.005778 0.979556
vn 0.201091 0.005778 0.979556
vn 0.201091 0.005778 0.979556
vn 0.201091 0.005778 0.979556
vn -0.993524 -0.063398 0.094288
vn -0.993524 -0.063398 0.094288
vn -0.993524 -0.063398 0.094288
vn 0.000000 0.000000 1.000000
vn 0.000000 0.000000 1.000000
vn 0.000000 0.000000 1.000000
vn -0.938074 -0.324668 0.120861
vn -0.938074 -0.324668 0.120861
vn -0.938074 -0.324668 0.120861
vn -0.938074 -0.324668 0.120861
vn 0.552409 -0.578991 0.599678
vn 0.552409 -0.578991 0.599678
vn 0.552409 -0.578991 0.599678
vn -0.598089 0.800232 0.043798
vn -0.598089 0.800232 0.043798
vn -0.598089 0.800232 0.043798
vn -0.598089 0.800232 0.043798
vn 0.021756 0.209928 0.977475
vn 0.021756 0.209928 0.977475
vn 0.021756 0.209928 0.977475
vn 0.021756 0.209928 0.977475
vn 0.021756 0.209928 0.977475
vn 0.293650 -0.122078 0.948086
vn 0.293650 -0.122078 0.948086
vn 0.293650 -0.122078 0.948086
vn 0.057624 0.004552 0.998328
vn 0.057624 0.004552 0.998328
vn 0.057624 0.004552 0.998328
vn 0.057624 0.004552 0.998328
vn 0.057624 0.004552 0.998328
vn 0.057624 0.004552 0.998328
vn 0.828858 -0.559459 -0.000000
vn 0.828858 -0.559459 -0.000000
vn 0.828858 -0.559459 -0.000000
vn 0.828858 -0.559459 -0.000000
vn -0.401981 0.911462 0.087460
vn -0.401981 0.911462 0.087460
vn -0.401981 0.911461 0.087460
vn -0.401981 0.911462 0.087460
vn -0.401981 0.911461 0.087460
vn 0.256308 0.042032 0.965681
vn 0.256308 0.042032 0.965681
vn 0.256308 0.042032 0.965681
vn 0.256308 0.042032 0.965681
vn -0.617449 0.636094 0.462754
vn -0.617449 0.636094 0.462754
vn -0.617449 0.636094 0.462754
vn 0.938821 -0.344284 -0.009091
vn 0.938821 -0.344284 -0.009091
vn 0.938821 -0.344284 -0.009091
vn 0.938821 -0.344284 -0.009091
vn 0.938821 -0.344284 -0.009091
vn 0.036798 0.031485 0.998827
vn 0.036798 0.031485 0.998827
vn 0.036798 0.031485 0.998827
vn -0.065531 0.997851 0.000000
vn -0.065531 0.997851 0.000000
vn -0.065531 0.997851 0.000000
vn -0.947316 0.304826 0.098355
vn -0.947316 0.304826 0.098355
vn -0.947316 0.304826 0.098355
vn -0.075004 0.992668 -0.094787
vn -0.075004 0.992668 -0.094787
vn -0.075004 0.992668 -0.094787
vn -0.075004 0.992668 -0.094787
vn -0.075004 0.992668 -0.094787
vn 0.124869 -0.117711 0.985166
vn 0.124869 -0.117711 0.985166
vn 0.124869 -0.117711 0.985166
vn 0.124869 -0.117711 0.985166
vn 0.989770 0.138499 0.034269
vn 0.989770 0.138499 0.034269
vn 0.989770 0.138499 0.034269
vn 0.989770 0.138499 0.034269
vn -0.018949 0.022623 0.999565
vn -0.018949 0.022623 0.999565
vn -0.018949 0.022623 0.999565
vn -0.018949 0.022623 0.999565
vn 0.722343 0.689292 0.055655
vn 0.722343 0.689292 0.055655
vn 0.722343 0.689292 0.055655
vn 0.722343 0.689292 0.055655
vn 0.759054 0.601278 0.249604
vn 0.759054 0.601278 0.249604
vn 0.759054 0.601278 0.249604
vn 0.759054 0.601278 0.249604
vn 0.422898 0.901710 0.089867
vn 0.422898 0.901710 0.089867
vn 0.422898 0.901710 0.089867
vn 0.422898 0.901710 0.089867
vn 0.020891 -0.180609 0.983333
vn 0.020891 -0.180609 0.983333
vn 0.020891 -0.180609 0.983333
vn 0.020891 -0.180609 0.983333
vn 0.020891 -0.180609 0.983333
vn -0.253844 0.041551 0.966352
vn -0.253844 0.041551 0.966352
vn -0.253844 0.041551 0.966352
vn -0.327166 -0.130552 0.935905
vn -0.327166 -0.130552 0.935905
vn -0.327166 -0.130552 0.935905
vn 0.745988 0.665959 -0.000000
vn 0.745988 0.665959 -0.000000
vn 0.745988 0.665959 -0.000000
vn 0.745988 0.665959 -0.000000
vn -0.989729 -0.119158 -0.078976
vn -0.989729 -0.119158 -0.078976
vn -0.989729 -0.119158 -0.078976
vn -0.989729 -0.119158 -0.078976
vn -0.162155 -0.986741 -0.006894
vn -0.162155 -0.986741 -0.006894
vn -0.162155 -0.986741 -0.006894
vn -0.162155 -0.986741 -0.006894
vn 0.006180 -0.002893 0.999977
vn 0.006180 -0.002893 0.999977
vn 0.006180 -0.002893 0.999977
vn 0.006180 -0.002893 0.999977
vn -0.967595 0.234441 0.093789
vn -0.967595 0.234441 0.093789
vn -0.967595 0.234441 0.093789
vn -0.967595 0.234441 0.093789
vn -0.759333 -0.542973 0.358601
vn -0.759333 -0.542973 0.358601
vn -0.759333 -0.542973 0.358601
vn -0.759333 -0.542973 0.358601
vn -0.290770 -0.894090 0.340669
vn -0.290770 -0.894090 0.340670
vn -0.290770 -0.894090 0.340670
vn -0.290770 -0.894090 0.340669
vn -0.385203 -0.864865 0.321913
vn -0.385203 -0.864865 0.321913
vn -0.385203 -0.864865 0.321913
vn -0.385203 -0.864865 0.321913
vn 0.154943 0.133781 0.978823
vn 0.154943 0.133781 0.978823
vn 0.154943 0.133781 0.978823
vn 0.026614 0.255486 0.966447
vn 0.026614 0.255486 0.966446
vn 0.026614 0.255486 0.966447
vn -0.025082 0.341540 0.939532
vn -0.025082 0.341540 0.939532
vn -0.025082 0.341540 0.939532
vn -0.078744 -0.220337 0.972240
vn -0.078745 -0.220337 0.972240
vn -0.078744 -0.220337 0.972240
vn -0.078744 -0.220337 0.972240
vn -0.249390 -0.252123 0.935007
vn -0.249390 -0.252123 0.935007
vn -0.249390 -0.252123 0.935007
vn -0.040812 0.470064 0.881689
vn 0.005356 -0.034330 0.999396
vn 0.003051 -0.008983 0.999955
vn -0.144586 0.311678 0.939123
vn -0.144585 0.311678 0.939123
vn -0.144586 0.311678 0.939123
vn -0.144586 0.311678 0.939123
vn 0.172400 0.218555 0.960475
vn 0.019610 0.002514 0.999805
vn -0.020730 0.345498 0.938191
vn 0.165199 -0.444176 0.880578
vn 0.165199 -0.444176 0.880578
vn 0.165199 -0.444176 0.880578
vn 0.165199 -0.444176 0.880578
vn -0.274854 0.661060 0.698180
vn -0.308338 0.657187 0.687774
vn 0.375099 0.518012 0.768742
vn 0.410196 0.492160 0.767801
vn 0.081486 0.470313 0.878730
vn 0.081486 0.470313 0.878730
vn 0.081486 0.470313 0.878730
vn 0.081486 0.470313 0.878730
vn 0.323512 -0.533105 0.781754
vn 0.312454 -0.540573 0.781123
vn -0.312600 -0.657130 0.685902
vn -0.285060 -0.660403 0.694700
vn -0.814490 0.039330 0.578843
vn -0.814490 0.039330 0.578843
vn -0.814490 0.039330 0.578843
vn -0.814490 0.039330 0.578843
vn 0.357595 -0.728408 0.584421
vn 0.357595 -0.728408 0.584421
vn 0.357595 -0.728408 0.584421
vn 0.357595 -0.728408 0.584421
vn 0.500998 -0.803037 0.322695
vn 0.972439 -0.044163 0.228938
vn 0.973933 -0.027248 0.225195
vn 0.489181 -0.810457 0.322275
vn 0.973737 0.029672 0.225735
vn 0.972313 0.045447 0.229220
vn -0.487493 0.854243 0.180610
vn -0.948088 -0.022968 0.317176
vn -0.948325 -0.005283 0.317256
vn -0.466187 0.867343 0.174315
vn -0.401420 -0.898411 0.178101
vn -0.419001 -0.891322 0.173157
vn 0.335475 0.692366 0.638817
vn 0.335475 0.692366 0.638816
vn 0.335475 0.692366 0.638817
vn 0.335475 0.692366 0.638817
vn -0.486338 -0.854973 0.180269
vn -0.466235 -0.867315 0.174328
vn -0.418008 0.891733 0.173439
vn -0.397706 0.899857 0.179131
vn -0.008226 0.851587 0.524149
vn -0.008226 0.851587 0.524149
vn -0.008226 0.851587 0.524149
vn -0.676752 -0.347803 0.648876
vn -0.676752 -0.347803 0.648876
vn -0.676752 -0.347803 0.648876
vn 0.556935 0.764822 0.323837
vn 0.502596 0.802017 0.322747
vn 0.131824 -0.843161 0.521251
vn 0.131824 -0.843161 0.521251
vn 0.131824 -0.843161 0.521251
vn 0.534938 -0.636683 0.555407
vn 0.534938 -0.636683 0.555407
vn 0.534938 -0.636683 0.555407
vn 0.522119 0.480733 0.704477
vn 0.522119 0.480733 0.704477
vn 0.522119 0.480733 0.704477
vn -0.788008 0.300849 0.537153
vn -0.788008 0.300849 0.537153
vn -0.788008 0.300849 0.537153
vn -0.851129 0.262366 0.454691
vn -0.851129 0.262366 0.454691
vn -0.851129 0.262366 0.454691
vn 0.511468 -0.524433 0.680713
vn 0.511468 -0.524433 0.680713
vn 0.511468 -0.524433 0.680713
vn 0.070093 -0.802367 0.592701
vn 0.070093 -0.802367 0.592701
vn 0.070093 -0.802367 0.592701
vn 0.542332 0.579738 0.608095
vn 0.542332 0.579738 0.608095
vn 0.542332 0.579738 0.608095
vn 0.005780 0.863568 0.504199
vn 0.005780 0.863568 0.504199
vn 0.005780 0.863568 0.504199
vn -0.700239 -0.334044 0.630936
vn -0.700239 -0.334044 0.630936
vn -0.700239 -0.334044 0.630936
vn -0.446144 0.022443 0.894680
vn -0.446144 0.022443 0.894680
vn -0.446144 0.022443 0.894680
vn -0.446144 0.022443 0.894680
vn 0.689666 0.048017 0.722534
vn 0.693480 0.033316 0.719706
vn 0.690682 -0.011906 0.723060
vn 0.681471 -0.037863 0.730865
vn -0.372222 0.610700 0.698925
vn -0.346427 0.637567 0.688110
vn 0.202399 -0.413191 0.887867
vn 0.202399 -0.413191 0.887867
vn 0.202399 -0.413191 0.887867
vn 0.202399 -0.413191 0.887867
vn -0.656670 -0.028910 0.753623
vn -0.656803 -0.020222 0.753791
vn 0.195430 -0.398137 0.896267
vn 0.195430 -0.398137 0.896267
vn 0.195430 -0.398137 0.896267
vn 0.195430 -0.398137 0.896267
vn -0.497223 0.081644 0.863773
vn -0.497223 0.081644 0.863773
vn -0.497223 0.081644 0.863773
vn -0.497223 0.081644 0.863773
vn -0.372486 -0.616335 0.693819
vn -0.350566 -0.638129 0.685489
vn 0.193552 0.332700 0.922956
vn 0.193552 0.332700 0.922956
vn 0.193552 0.332700 0.922957
vn 0.193552 0.332700 0.922956
vn 0.186204 0.395828 0.899249
vn 0.186204 0.395828 0.899249
vn 0.186204 0.395828 0.899249
vn 0.186204 0.395828 0.899249
vn -0.321718 -0.135566 0.937080
vn -0.321718 -0.135566 0.937080
vn -0.321718 -0.135566 0.937080
vn -0.321718 -0.135566 0.937080
vn 0.846423 -0.200293 0.493408
vn 0.846423 -0.200293 0.493408
vn 0.846423 -0.200293 0.493408
vn 0.654301 -0.703546 0.277332
vn 0.654301 -0.703546 0.277332
vn 0.654301 -0.703546 0.277332
vn 0.654301 -0.703546 0.277332
vn 0.402530 -0.860178 0.313150
vn 0.402530 -0.860178 0.313150
vn 0.402530 -0.860178 0.313150
vn -0.435059 -0.710161 0.553529
vn -0.435059 -0.710161 0.553529
vn -0.435059 -0.710161 0.553529
vn -0.435059 -0.710161 0.553529
vn 0.012002 -0.107477 0.994135
vn 0.207367 0.133845 0.969064
vn -0.056784 -0.102421 0.993119
vn -0.129427 -0.168599 0.977150
s off
g pCube3
usemtl initialShadingGroup
f 58/56/1 59/57/2 50/44/3
f 55/51/4 53/48/5 52/47/6
f 41/35/7 42/36/8 43/37/9 44/38/10 45/39/11 46/40/12 47/41/13 48/42/14 49/43/15
f 23/93/16 28/119/17 31/23/18
s 1
f 8/95/19 9/7/20 42/36/21 41/35/22
f 9/7/20 10/8/23 43/37/24 42/36/21
f 10/8/23 11/9/25 44/38/26 43/37/24
f 11/9/25 12/10/27 45/39/28 44/38/26
f 12/10/27 13/11/29 46/40/30 45/39/28
f 13/11/29 14/103/31 47/41/32 46/40/30
f 14/103/31 15/96/33 48/42/34 47/41/32
f 15/96/33 16/90/35 49/43/36 48/42/34
f 16/90/35 8/95/19 41/35/22 49/43/36
s off
f 6/6/37 52/47/38 53/48/39 1/1/40
f 53/48/41 55/51/42 7/113/43 21/111/44
f 35/28/45 5/5/46 51/46/47
f 79/78/48 54/50/49 52/47/50
f 52/47/51 54/50/52 81/83/53 7/113/54 55/51/55
f 34/27/56 52/47/57 6/6/58
f 61/59/59 63/62/60 60/58/61
f 1/1/62 53/48/63 56/52/64 2/2/65
f 65/64/66 58/61/67 62/60/68
f 56/53/69 60/58/70 18/13/71 2/12/72
f 56/52/73 53/48/74 21/111/75 61/59/76 60/58/77
f 67/66/78 66/65/79 65/64/80
f 59/57/81 58/56/82 57/55/83 62/60/84 58/61/85 20/84/86
f 57/55/87 3/14/88 19/15/89 62/60/90
f 60/58/91 63/62/92 64/63/93 22/16/94 18/13/95
f 21/111/96 64/63/97 63/62/98 61/59/99
f 70/69/100 64/63/101 68/67/102
f 65/64/103 62/60/104 19/15/105 24/17/106 67/66/107
f 75/110/108 67/66/109 71/70/110
f 64/63/111 25/18/112 22/16/113
f 64/63/114 23/93/115 68/67/116
f 64/63/117 70/69/118 69/68/119 26/19/120 25/18/121
f 23/93/122 69/68/123 70/69/124 68/67/125
f 67/66/126 24/17/127 27/20/128 71/70/129
f 28/119/130 75/110/131 71/70/132 72/71/133
f 71/70/134 27/20/135 29/21/136 72/71/137
f 33/26/138 73/72/139 72/71/140 32/24/141
f 69/68/142 74/73/143 30/22/144 26/19/145
f 23/93/146 31/23/147 73/72/148 74/73/149 69/68/150
f 28/119/151 72/71/152 31/23/153
f 31/23/154 72/71/155 73/72/156
f 74/73/157 73/72/158 33/25/159 30/22/160
f 36/29/161 79/78/162 52/47/163 34/27/164
f 37/30/165 35/28/166 51/49/167 76/75/168
f 79/78/169 78/77/170 17/116/171 54/50/172
f 38/31/173 78/77/174 79/78/175 36/29/176
f 40/33/177 80/81/178 78/77/179 38/31/180
f 40/34/181 39/32/182 77/76/183 80/80/184
f 39/32/185 37/30/186 76/74/187 77/76/188
f 78/77/189 80/79/190 17/116/191
f 64/63/192 21/111/193 23/93/194
f 80/80/195 77/76/196 17/116/197
f 20/84/198 58/61/199 65/64/200 66/65/201
f 17/116/202 81/83/203 54/50/204
s 2
f 50/45/205 59/57/206 82/107/207
s off
f 75/110/208 20/84/209 66/65/210 67/66/211
s 3
f 77/76/212 82/107/213 17/116/214
s off
f 91/108/215 90/124/216 108/137/217 107/117/218
s 4
f 90/125/219 89/102/220 109/82/221 108/138/222
s off
f 97/112/223 96/128/224 102/133/225 101/98/226
s 4
f 96/129/227 95/91/228 103/100/229 102/132/230
s off
f 85/101/231 88/114/232 7/113/233 81/83/234
f 94/115/235 91/108/236 82/107/237 20/84/238
s 6
f 95/91/239 86/85/240 12/87/241 11/86/242
f 13/106/243 12/87/241 86/85/240 83/88/244
f 92/97/245 98/89/246 8/95/247 16/90/248
f 103/100/249 95/91/239 11/86/242 10/92/250
s off
f 23/93/251 101/98/252 106/118/253 28/119/254
s 6
f 98/89/246 104/94/255 9/99/256 8/95/247
f 16/90/248 15/96/257 89/102/258 92/97/245
s off
f 21/111/259 97/112/260 101/98/261
s 6
f 10/92/250 9/99/256 104/94/255 103/100/249
s off
f 17/116/262 107/117/263 85/101/264
s 6
f 109/82/265 89/102/258 15/96/257 14/103/266
f 83/88/244 109/104/265 14/105/266 13/106/243
s off
f 17/116/267 82/107/268 91/108/269
f 94/115/270 20/84/271 75/110/272
f 100/109/273 75/110/274 106/118/275
f 21/111/276 88/114/277 97/112/278
f 7/113/279 88/114/280 21/111/281
f 94/115/282 75/110/283 100/109/284
f 17/116/285 91/108/286 107/117/287
f 106/118/288 75/110/289 28/119/290
f 23/93/291 21/111/292 101/98/293
f 85/101/294 81/83/295 17/116/296
f 85/101/297 84/120/298 87/123/299 88/114/300
s 4
f 84/121/301 83/88/302 86/85/303 87/122/304
f 89/102/220 90/125/219 93/127/305 92/97/306
s off
f 90/124/307 91/108/308 94/115/309 93/126/310
s 4
f 92/97/306 93/127/305 99/131/311 98/89/312
s off
f 93/126/313 94/115/314 100/109/315 99/130/316
f 88/114/317 87/123/318 96/128/319 97/112/320
s 4
f 87/122/304 86/85/303 95/91/228 96/129/227
f 98/89/312 99/131/311 105/135/321 104/94/322
s off
f 99/130/323 100/109/324 106/118/325 105/134/326
f 101/98/327 102/133/328 105/134/329 106/118/330
s 4
f 102/132/230 103/100/229 104/94/322 105/135/321
f 83/88/302 84/121/301 108/136/222 109/104/221
s off
f 84/120/331 85/101/332 107/117/333 108/137/334
f 32/24/335 72/71/336 29/21/337
f 4/4/338 50/44/339 51/46/340 5/5/341
f 58/56/342 50/44/343 4/4/344
f 58/56/345 4/4/346 3/3/347 57/54/348
s 2
f 82/107/207 59/57/206 20/84/349
s 3
f 77/76/212 76/74/350 82/107/213
f 82/107/213 76/74/350 51/49/351
f 82/107/213 51/49/351 50/45/352
